<mxfile host="app.diagrams.net" modified="2023-10-26T16:48:45.555Z" agent="Mozilla/5.0 (X11; Ubuntu; Linux x86_64; rv:109.0) Gecko/20100101 Firefox/118.0" version="22.0.8" etag="W3t-mAwesHMqOznWOHzV" type="github">
  <diagram name="Page-1" id="MMCSc83d40GUKvLBgfkt">
    <mxGraphModel>
      <root>
        <mxCell id="0" />
        <mxCell id="1" parent="0" />
      </root>
    </mxGraphModel>
  </diagram>
</mxfile>
